<svg width="1037" height="1037" viewBox="0 0 1037 1037" fill="none" xmlns="http://www.w3.org/2000/svg">
<g clip-path="url(#clip0)">
<path d="M615.685 537.893L603.629 546.999C597.025 551.918 591.05 556 590.316 556C589.687 555.895 583.921 552.337 577.527 548.045C571.237 543.649 564.423 539.149 562.641 537.893C560.754 536.637 559.181 535.276 559.181 534.858C559.181 534.23 577.212 521.984 581.825 519.576C583.397 518.739 586.856 520.414 599.75 528.264L615.685 537.893Z" fill="#245AA4"/>
<path d="M656.463 508.377C656.673 508.482 651.956 512.04 645.98 516.227C640.005 520.414 634.764 524.286 634.135 524.705C633.086 525.438 602.162 509.005 602.162 507.749C602.162 506.807 623.442 494.247 624.91 494.247C625.748 494.247 655.52 507.54 656.463 508.377Z" fill="#245AA4"/>
<path d="M564.108 505.342C564.004 505.446 559.705 507.958 554.464 510.994C549.327 513.924 543.562 517.274 541.884 518.32L538.635 520.309L524.063 508.796C515.991 502.411 509.178 496.864 509.073 496.236C508.863 495.712 514.209 492.573 521.023 489.328C532.345 483.885 533.498 483.571 535.7 484.932C539.683 487.339 564.423 505.132 564.108 505.342Z" fill="#245AA4"/>
<path d="M684.138 477.605C690.952 479.594 696.508 481.373 696.508 481.687C696.508 482.001 691.372 485.56 685.082 489.642L673.76 497.178L663.382 493.201C657.721 491.003 650.383 488.177 647.238 486.711L641.473 484.199L652.899 478.024C663.592 472.267 664.64 471.953 668.1 473C670.196 473.628 677.429 475.721 684.138 477.605Z" fill="#245AA4"/>
<path d="M604.992 483.153C605.306 483.467 600.275 486.293 593.88 489.433C587.485 492.677 581.929 495.294 581.51 495.294C580.147 495.189 553.521 476.768 553.101 475.617C552.787 474.675 573.124 465.673 575.43 465.673C576.373 465.673 603.734 481.897 604.992 483.153Z" fill="#245AA4"/>
<path d="M513.895 468.081C514 468.395 508.653 471.011 501.944 473.837C495.13 476.768 489.365 479.175 489.05 479.385C488.316 479.594 459.803 455.416 459.698 454.474C459.593 453.741 483.599 445.054 485.486 445.054C486.744 445.054 513.266 466.615 513.895 468.081Z" fill="#245AA4"/>
<path d="M643.36 463.894C643.884 464.313 639.691 466.929 634.135 469.546C628.474 472.163 623.128 474.361 622.184 474.361C620.612 474.361 598.807 463.161 594.404 460.126C592.412 458.765 592.517 458.661 595.033 457.719C608.347 452.695 615.58 450.602 616.943 451.439C617.781 451.962 623.861 454.788 630.466 457.719C637.07 460.754 642.94 463.475 643.36 463.894Z" fill="#245AA4"/>
<path d="M736.868 456.044L729.53 460.859C715.797 469.755 713.072 471.011 709.612 470.174C707.935 469.755 700.911 468.081 694.202 466.511C687.388 464.941 681.832 463.266 681.832 462.952C681.832 462.533 686.864 459.707 693.154 456.672L704.371 451.125L714.329 452.799C719.781 453.741 727.119 454.788 730.578 455.311L736.868 456.044Z" fill="#245AA4"/>
<path d="M555.932 452.486C556.036 452.904 551.109 454.893 545.029 456.986C538.949 459.079 533.498 460.754 532.764 460.754C530.248 460.649 504.46 439.507 505.928 438.67C506.662 438.356 512.113 436.786 517.878 435.216L528.571 432.494L542.199 442.124C549.747 447.462 555.932 452.172 555.932 452.486Z" fill="#245AA4"/>
<path d="M681.832 448.194C681.308 448.194 676.591 450.078 671.454 452.381C666.317 454.683 661.495 456.567 660.761 456.567C659.608 456.463 642.731 450.183 633.086 446.101C630.675 445.159 630.151 445.368 643.36 440.868L652.69 437.832L666.422 441.914C674.075 444.217 680.889 446.101 681.622 446.101C682.251 446.101 682.88 446.624 682.88 447.148C682.88 447.776 682.461 448.194 681.832 448.194Z" fill="#245AA4"/>
<path d="M594.195 439.612C595.872 440.449 594.719 441.077 587.171 443.38C572.39 447.88 573.858 448.194 559.391 438.356C552.367 433.646 546.287 429.459 545.973 429.145C545.658 428.831 550.585 427.575 556.77 426.424L568.092 424.226L580.147 431.343C586.752 435.32 593.146 438.984 594.195 439.612Z" fill="#245AA4"/>
<path d="M777.751 430.192L766.22 437.623L754.689 445.054L745.778 444.845C736.553 444.74 732.884 444.426 724.812 443.38L720.095 442.752L731.102 437.204L742.214 431.657L759.93 430.924L777.751 430.192Z" fill="#245AA4"/>
<path d="M721.668 430.401C721.668 430.715 716.741 432.913 710.87 435.425C704.895 437.832 699.444 439.821 698.605 439.716C695.775 439.612 671.349 433.96 670.72 433.332C670.406 432.913 674.704 431.134 680.365 429.354L690.638 426.11L706.153 427.994C714.644 429.04 721.668 430.087 721.668 430.401Z" fill="#245AA4"/>
<path d="M467.979 429.354C467.979 429.668 462.633 431.448 456.134 433.436C449.739 435.32 443.659 437.1 442.611 437.414C441.458 437.728 436.426 433.75 427.201 425.168C419.653 418.05 413.468 412.189 413.468 412.084C413.468 411.875 419.548 410.305 427.096 408.421C440.409 405.072 440.724 405.072 443.135 406.956C447.538 410.41 467.979 428.831 467.979 429.354Z" fill="#245AA4"/>
<path d="M633.401 430.924C633.506 431.029 628.684 432.39 622.708 433.96C616.628 435.425 611.491 436.681 611.387 436.576C609.29 435.948 585.389 422.446 585.389 421.923C585.389 421.504 590.001 420.667 595.662 419.934L605.831 418.678L619.458 424.644C627.006 427.889 633.191 430.715 633.401 430.924Z" fill="#245AA4"/>
<path d="M670.301 422.028C670.301 422.446 666.422 423.493 661.705 424.54C656.883 425.586 652.061 426.528 650.907 426.842C649.754 427.052 642.731 424.854 635.183 422.028C627.74 419.202 621.765 416.899 622.079 416.794C622.394 416.794 627.216 416.166 632.772 415.329C641.997 414.178 643.569 414.178 649.02 415.957C652.375 416.899 658.56 418.574 662.753 419.62C666.841 420.562 670.301 421.714 670.301 422.028Z" fill="#245AA4"/>
<path d="M510.855 418.992C510.96 419.306 506.033 420.562 500.162 421.818C494.187 423.074 488.526 424.121 487.687 424.121C486.325 424.121 462.738 404.653 461.27 402.246C460.956 401.723 464.73 400.676 469.866 400.048C485.696 397.745 484.333 397.327 498.275 408.421C505.194 413.864 510.855 418.678 510.855 418.992Z" fill="#245AA4"/>
<path d="M763.075 412.503L751.125 417.841C742.319 421.714 737.916 422.97 734.876 422.865C721.563 422.237 717.579 422.028 713.281 421.4L708.564 420.772L719.361 417.318C729.006 414.282 732.046 413.759 746.617 413.236L763.075 412.503Z" fill="#245AA4"/>
<path d="M795.573 419.411L784.041 420.667C777.751 421.4 770.204 421.923 767.268 421.923L762.027 422.028L767.268 419.097C781.84 411.143 786.138 409.573 802.911 406.537C812.136 404.863 819.788 403.502 819.893 403.607C820.103 403.816 814.652 407.375 807.942 411.666L795.573 419.411Z" fill="#245AA4"/>
<path d="M710.66 412.922L701.226 415.329C696.089 416.585 689.694 417.632 687.074 417.632C681.832 417.632 662.858 413.968 661.6 412.712C659.923 411.143 681.937 409.259 689.17 410.41C692.944 410.933 699.339 411.77 703.322 412.189L710.66 412.922Z" fill="#245AA4"/>
<path d="M550.585 413.236C550.376 413.34 546.287 413.968 541.36 414.701C536.433 415.329 531.716 416.062 530.668 416.376C529.2 416.794 517.878 408.945 505.299 398.687L502.259 396.175L513.58 395.547L524.902 394.919L537.901 403.921C545.029 408.84 550.69 413.026 550.585 413.236Z" fill="#245AA4"/>
<path d="M575.325 402.246C582.558 406.433 588.429 409.887 588.324 409.991C588.114 410.201 583.083 410.514 577.002 410.933L565.995 411.561L553.94 403.397L541.884 395.338L551.948 395.024L562.117 394.71L575.325 402.246Z" fill="#245AA4"/>
<path d="M612.33 402.455C619.354 405.386 625.014 407.898 624.91 408.003C624.805 408.107 619.983 408.421 614.217 408.735L603.734 409.468L591.679 403.083C585.074 399.629 579.413 396.489 579.099 396.175C578.785 395.966 583.292 396.071 589.058 396.489C598.388 397.117 601.008 397.745 612.33 402.455Z" fill="#245AA4"/>
<path d="M750.496 402.246L740.013 405.281C731.102 407.898 727.852 408.317 718.523 408.212C712.443 408.212 705.838 407.898 703.846 407.479C698.5 406.537 720.514 403.397 737.392 402.769L750.496 402.246Z" fill="#245AA4"/>
<path d="M662.124 406.014L655.625 406.642C644.408 407.898 640.739 407.375 629.103 403.188C622.813 400.99 617.467 398.897 617.152 398.583C615.265 396.699 638.747 399.629 649.754 402.665L662.124 406.014Z" fill="#245AA4"/>
<path d="M794 398.583C782.993 403.921 780.896 404.549 769.889 405.909C763.285 406.747 756.261 407.375 754.165 407.27C747.77 407.165 768.526 400.362 786.138 396.908C794.839 395.129 802.806 393.454 803.959 393.245C805.112 392.931 800.604 395.338 794 398.583Z" fill="#245AA4"/>
<path d="M696.404 402.246C699.863 402.246 700.597 402.455 699.129 403.083C697.976 403.607 692.839 404.235 687.598 404.549C680.26 404.967 675.752 404.653 667.156 402.874L656.149 400.571L665.584 400.257C670.825 400.048 678.792 400.467 683.3 400.99C687.912 401.618 693.783 402.141 696.404 402.246Z" fill="#245AA4"/>
<path d="M852.076 383.511C840.335 391.047 838.867 391.779 825.449 395.129C806.894 399.839 805.531 400.153 805.531 399.629C805.531 399.42 810.983 396.28 817.587 392.721C824.925 388.849 836.351 384.034 846.205 380.685C855.221 377.649 863.607 374.823 864.76 374.405C867.591 373.358 866.438 374.195 852.076 383.511Z" fill="#245AA4"/>
<path d="M616.838 388.849C615.58 387.488 653.738 395.338 656.673 397.013C657.512 397.536 657.826 397.85 657.197 397.745C656.673 397.745 651.956 397.222 646.714 396.699C638.747 395.966 618.515 390.628 616.838 388.849Z" fill="#245AA4"/>
<path d="M423.846 390C423.636 390.105 418.29 391.361 411.896 392.617C405.606 393.873 399.316 395.129 398.058 395.443C394.913 396.28 368.496 371.684 371.326 370.532C372.27 370.009 378.769 368.753 385.688 367.706L398.268 365.718L402.461 369.486C413.153 379.01 424.265 389.686 423.846 390Z" fill="#245AA4"/>
<path d="M577.002 380.266C581.615 379.743 615.789 390.523 618.829 393.349C619.563 394.082 614.636 393.663 605.831 392.198C599.436 391.256 594.928 389.686 586.961 385.604C581.196 382.673 576.688 380.266 577.002 380.266Z" fill="#245AA4"/>
<path d="M551.424 374.509C557.714 375.765 562.641 377.859 571.761 382.883C578.365 386.546 582.873 389.477 581.72 389.477C580.567 389.372 575.64 388.744 570.713 388.116C563.375 387.069 560.754 386.232 555.512 382.883C537.586 371.369 537.691 371.683 551.424 374.509Z" fill="#245AA4"/>
<path d="M467.246 382.359C469.342 384.034 469.133 384.139 462.109 384.871C458.125 385.29 452.465 385.918 449.425 386.337L443.973 387.174L431.079 375.556L418.185 363.938L430.975 362.996L443.764 362.054L454.456 371.369C460.222 376.498 465.988 381.417 467.246 382.359Z" fill="#245AA4"/>
<path d="M533.708 376.079C539.054 379.743 544.191 383.301 545.239 384.034C546.916 385.081 546.602 385.29 543.457 385.185C526.684 384.662 525.95 384.453 513.895 375.451C507.71 370.846 502.678 366.764 502.573 366.45C502.573 366.136 507.395 366.66 513.371 367.602C523.749 369.276 524.378 369.486 533.708 376.079Z" fill="#245AA4"/>
<path d="M497.122 373.253C503.517 378.277 508.863 382.673 508.863 382.883C508.863 383.092 503.726 383.301 497.437 383.301H486.115L474.374 373.253C467.875 367.706 462.738 363.101 462.948 362.892C463.157 362.682 468.189 362.892 474.269 363.206L485.276 363.938L497.122 373.253Z" fill="#245AA4"/>
<path d="M542.933 361.112C540.207 358.286 562.536 366.869 572.285 372.311C581.72 377.545 581.196 377.859 569.35 374.405C562.326 372.416 545.973 364.148 542.933 361.112Z" fill="#245AA4"/>
<path d="M513.895 350.227C522.491 353.158 538.635 361.95 543.981 366.764C545.344 367.916 544.4 367.811 533.813 364.985C525.95 362.996 523.12 361.531 514.105 355.146C508.339 350.96 503.622 347.401 503.622 347.192C503.622 346.982 508.234 348.343 513.895 350.227Z" fill="#245AA4"/>
<path d="M496.808 349.285C502.049 353.158 506.662 356.821 507.291 357.344C508.653 358.496 505.718 358.286 495.55 356.193C487.268 354.623 486.534 354.204 476.471 346.145C470.705 341.54 465.988 337.458 465.988 337.039C465.883 336.725 470.705 337.667 476.68 339.237C486.534 341.749 488.107 342.586 496.808 349.285Z" fill="#245AA4"/>
<path d="M523.015 344.68C526.894 346.354 545.553 357.24 545.553 357.763C545.553 359.542 526.789 350.96 518.403 345.412C507.92 338.4 507.186 337.562 514.105 340.702C517.249 342.063 521.338 343.842 523.015 344.68Z" fill="#245AA4"/>
<path d="M378.664 351.692C376.778 351.902 370.383 352.634 364.303 353.472C358.327 354.309 353.086 355.042 352.772 355.042C351.828 355.042 327.508 332.852 327.508 332.015C327.508 331.387 344.909 329.189 354.868 328.561C356.86 328.352 360.424 330.968 369.754 339.342C376.463 345.308 382.019 350.541 382.019 350.855C382.019 351.169 380.551 351.588 378.664 351.692Z" fill="#245AA4"/>
<path d="M447.538 333.062C449.215 333.69 464.101 345.936 469.552 350.96C470.705 352.111 467.77 352.006 455.505 350.646L446.699 349.704L435.902 340.074C429.926 334.841 425.314 330.34 425.523 330.026C426.152 329.503 444.812 332.015 447.538 333.062Z" fill="#245AA4"/>
<path d="M428.668 348.657L420.177 348.762C415.46 348.762 409.589 348.971 407.073 349.285L402.461 349.808L390.72 339.132C384.325 333.166 378.979 327.933 378.979 327.41C378.874 326.887 384.43 326.782 392.083 327.096L405.396 327.828L410.742 332.434C413.678 334.946 418.919 339.656 422.378 342.796L428.668 348.657Z" fill="#245AA4"/>
<path d="M500.791 337.144C505.823 340.807 509.911 343.947 509.911 344.156C509.911 344.366 509.807 344.575 509.702 344.47C509.492 344.366 504.88 342.586 499.324 340.493C491.881 337.667 486.954 334.841 479.72 329.398C474.479 325.421 470.286 321.967 470.495 321.863C471.544 320.816 493.139 331.701 500.791 337.144Z" fill="#245AA4"/>
<path d="M462.633 322.595C467.875 326.677 472.173 330.236 472.173 330.55C472.173 331.178 471.334 330.968 461.061 328.038C452.36 325.421 450.578 324.479 441.353 316.943C435.797 312.443 431.394 308.57 431.604 308.361C431.813 308.151 436.74 309.512 442.506 311.501C451.521 314.536 454.456 316.106 462.633 322.595Z" fill="#245AA4"/>
<path d="M423.951 312.129C428.249 315.687 432.232 319.037 432.861 319.56C434.119 320.816 430.66 320.502 419.129 318.513L409.694 316.839L399.316 307.942C391.454 301.139 389.567 298.941 391.139 298.731C394.179 298.313 412.524 302.499 414.411 304.069C415.355 304.907 419.653 308.465 423.951 312.129Z" fill="#245AA4"/>
<path d="M439.675 297.894C439.675 296.638 463.262 309.617 469.971 314.641C474.269 317.885 477.309 320.502 476.785 320.397C473.011 320.083 455.505 310.768 448.376 305.116C443.554 301.453 439.675 298.208 439.675 297.894Z" fill="#245AA4"/>
<path d="M339.877 314.222C339.144 314.641 333.797 315.269 328.032 315.687C322.266 316.106 315.871 316.629 313.88 316.943C310.42 317.467 309.372 316.839 297.946 307C291.132 301.243 285.995 296.324 286.414 296.01C286.834 295.801 292.39 295.277 298.679 294.859C305.074 294.545 311.888 294.021 313.984 293.812C317.549 293.393 318.702 294.126 329.604 303.441C337.676 310.349 340.926 313.699 339.877 314.222Z" fill="#245AA4"/>
<path d="M379.818 304.802C385.583 309.721 390.301 314.013 390.301 314.536C390.405 314.955 389.776 315.164 389.147 315.059C388.414 314.955 382.229 314.641 375.52 314.222L363.255 313.699L352.247 304.279C346.167 299.15 341.135 294.545 341.135 294.126C341.135 293.289 360.529 294.231 366.085 295.277C368.286 295.696 373.213 299.045 379.818 304.802Z" fill="#245AA4"/>
<path d="M430.555 296.847C435.587 300.825 439.675 304.279 439.675 304.488C439.675 305.011 438.417 304.697 427.62 300.72C419.024 297.58 415.46 295.591 408.017 289.625C403.09 285.544 399.106 282.194 399.316 281.985C399.421 281.776 404.453 283.45 410.428 285.648C419.234 288.893 423.112 291.091 430.555 296.847Z" fill="#245AA4"/>
<path d="M378.455 275.496C380.551 276.333 391.873 284.811 398.163 290.358C398.687 290.777 398.897 291.405 398.687 291.719C398.372 292.033 397.848 292.033 397.639 291.719C397.324 291.509 391.873 290.149 385.478 288.683L373.842 286.171L364.303 278.531C359.061 274.24 355.287 270.681 355.812 270.472C356.965 270.053 374.262 273.926 378.455 275.496Z" fill="#245AA4"/>
<path d="M301.719 280.624C302.034 281.148 296.792 281.776 289.979 282.194C283.269 282.613 275.826 283.136 273.52 283.45C269.642 283.869 268.593 283.346 257.586 275.286C250.248 269.948 246.264 266.39 247.103 265.971C247.732 265.552 255.489 264.924 264.19 264.506L279.915 263.773L290.607 271.728C296.478 276.124 301.51 280.101 301.719 280.624Z" fill="#245AA4"/>
<path d="M343.232 274.24C348.683 278.531 353.61 282.508 354.239 283.032C355.392 283.974 354.344 283.974 337.466 282.404L324.887 281.252L316.815 274.763C312.412 271.309 307.695 267.646 306.437 266.704C305.074 265.866 304.34 264.82 304.655 264.506C304.969 264.192 311.573 264.401 319.226 265.134L333.273 266.285L343.232 274.24Z" fill="#245AA4"/>
<path d="M398.582 272.984C403.299 276.228 407.178 279.054 407.178 279.264C407.178 279.996 405.92 279.578 395.857 275.914C389.462 273.612 383.172 270.262 377.721 266.39C373.213 263.145 369.649 260.319 369.859 260.11C371.012 258.958 391.139 268.064 398.582 272.984Z" fill="#245AA4"/>
<path d="M356.65 258.54C361.472 261.784 365.666 264.82 365.98 265.238C366.399 266.076 365.456 266.18 363.674 265.448C363.15 265.238 357.594 263.878 351.514 262.517C341.45 260.214 339.668 259.482 330.862 253.411C325.621 249.852 321.427 246.712 321.532 246.608C321.637 246.398 327.717 247.654 334.846 249.434C346.796 252.26 348.788 253.097 356.65 258.54Z" fill="#245AA4"/>
<path d="M309.477 249.538C314.718 252.992 319.121 256.028 319.121 256.237C319.121 256.76 315.871 256.551 301.3 255.19L289.245 254.039L278.762 247.55L268.384 240.956H274.569C278.028 240.956 285.156 241.479 290.293 242.003C299.308 243.049 300.147 243.363 309.477 249.538Z" fill="#245AA4"/>
<path d="M264.61 253.83C264.61 254.248 261.36 254.562 257.481 254.562C253.498 254.562 245.321 254.876 239.346 255.19L228.443 255.818L222.258 251.946C218.904 249.852 213.767 247.026 210.937 245.561C208.002 244.096 205.905 242.735 206.115 242.526C206.219 242.421 214.396 241.689 224.041 241.061C236.935 240.223 242.281 240.223 243.958 241.061C249.934 243.991 264.61 253.097 264.61 253.83Z" fill="#245AA4"/>
<path d="M325.201 239.386C330.443 241.898 334.846 244.305 334.846 244.619C334.846 245.247 335.475 245.457 320.694 241.898C312.831 240.014 304.864 237.293 299.518 234.676C294.696 232.269 290.817 230.175 290.817 230.071C290.817 229.861 296.373 230.803 303.187 232.269C311.783 234.048 318.387 236.141 325.201 239.386Z" fill="#245AA4"/>
<path d="M227.185 232.583C227.605 233.001 221.734 233.629 214.187 234.048C206.534 234.362 197.833 234.885 195.003 235.199C190.705 235.513 187.56 234.885 178.649 231.641C165.755 226.931 165.546 227.035 189.971 225.256L206.01 224L216.178 227.873C221.734 230.071 226.766 232.164 227.185 232.583Z" fill="#245AA4"/>
<path d="M254.546 225.256C266.077 226.303 267.859 226.721 276.56 230.908C287.148 236.037 287.358 235.932 267.23 234.257C255.07 233.211 252.554 232.687 243.644 228.919C233.895 224.837 233.79 224.733 237.773 224.419C240.08 224.209 247.627 224.523 254.546 225.256Z" fill="#245AA4"/>
<path d="M160.62 646.359C160.368 647.565 160.882 648.425 162.171 648.425H165.611C166.303 648.425 167.068 647.827 167.163 647.219L174.639 602.934C174.723 602.934 174.902 602.934 174.985 602.934L190.977 648.341C191.145 648.855 191.921 649.285 192.434 649.285H193.986C194.5 649.285 195.276 648.855 195.444 648.341L211.267 602.934C211.351 602.934 211.53 602.934 211.613 602.934L219.268 647.219C219.436 647.827 220.128 648.425 220.81 648.425H224.249C225.539 648.425 226.063 647.565 225.801 646.359L214.707 588.577C214.539 587.885 213.847 587.371 213.165 587.371H211.781C211.184 587.371 210.491 587.801 210.324 588.315L193.556 635.694C193.389 635.694 193.294 635.694 193.126 635.694L176.097 588.315C175.929 587.801 175.237 587.371 174.639 587.371H173.266C172.574 587.371 171.892 587.885 171.714 588.577L160.62 646.359ZM245.148 618.412C245.148 635.61 258.822 649.285 276.019 649.285C293.216 649.285 306.974 635.61 306.974 618.412C306.974 601.214 293.216 587.371 276.019 587.371C258.822 587.371 245.148 601.214 245.148 618.412ZM251.167 618.412C251.167 604.737 262.345 593.391 276.019 593.391C289.693 593.391 300.955 604.737 300.955 618.412C300.955 632.087 289.693 643.266 276.019 643.266C262.345 643.266 251.167 632.087 251.167 618.412ZM330.536 646.789C330.536 647.649 331.302 648.425 332.162 648.425H335.517C336.461 648.425 337.153 647.649 337.153 646.789V620.74H372.061V646.789C372.061 647.649 372.754 648.425 373.697 648.425H377.053C377.913 648.425 378.689 647.649 378.689 646.789V589.867C378.689 589.007 377.913 588.231 377.053 588.231H373.697C372.754 588.231 372.061 589.007 372.061 589.867V614.972H337.153V589.867C337.153 589.007 336.461 588.231 335.517 588.231H332.162C331.302 588.231 330.536 589.007 330.536 589.867V646.789ZM399.839 648.425H403.279C404.055 648.425 404.568 647.911 404.736 647.481L411.017 633.293H441.542L447.907 647.481C448.075 647.911 448.589 648.425 449.365 648.425H452.805C454.094 648.425 454.786 647.303 454.262 646.191L428.298 588.315C428.036 587.801 427.606 587.371 426.841 587.371H425.981C425.205 587.371 424.775 587.801 424.513 588.315L398.371 646.191C397.857 647.303 398.549 648.425 399.839 648.425ZM413.419 627.955L425.981 599.756H426.663C430.878 609.131 435.01 618.59 439.215 627.955H413.419ZM470.264 646.359C470.002 647.565 470.516 648.425 471.805 648.425H475.245C475.937 648.425 476.713 647.827 476.797 647.219L484.273 602.934C484.357 602.934 484.535 602.934 484.619 602.934L500.611 648.341C500.789 648.855 501.554 649.285 502.079 649.285H503.62C504.134 649.285 504.91 648.855 505.088 648.341L520.901 602.934C520.996 602.934 521.163 602.934 521.247 602.934L528.902 647.219C529.07 647.827 529.762 648.425 530.454 648.425H533.894C535.183 648.425 535.697 647.565 535.435 646.359L524.341 588.577C524.173 587.885 523.481 587.371 522.799 587.371H521.426C520.817 587.371 520.136 587.801 519.958 588.315L503.19 635.694C503.022 635.694 502.939 635.694 502.76 635.694L485.741 588.315C485.563 587.801 484.882 587.371 484.273 587.371H482.9C482.208 587.371 481.526 587.885 481.348 588.577L470.264 646.359ZM555.212 646.359C554.96 647.565 555.474 648.425 556.764 648.425H560.203C560.885 648.425 561.661 647.827 561.745 647.219L569.232 602.934C569.316 602.934 569.483 602.934 569.578 602.934L585.569 648.341C585.737 648.855 586.513 649.285 587.027 649.285H588.579C589.092 649.285 589.868 648.855 590.036 648.341L605.86 602.934C605.944 602.934 606.122 602.934 606.206 602.934L613.861 647.219C614.028 647.827 614.721 648.425 615.402 648.425H618.842C620.131 648.425 620.645 647.565 620.394 646.359L609.299 588.577C609.131 587.885 608.439 587.371 607.747 587.371H606.374C605.776 587.371 605.084 587.801 604.916 588.315L588.149 635.694C587.97 635.694 587.887 635.694 587.719 635.694L570.689 588.315C570.522 587.801 569.83 587.371 569.232 587.371H567.858C567.166 587.371 566.474 587.885 566.306 588.577L555.212 646.359ZM643.956 646.789C643.956 647.649 644.637 648.425 645.581 648.425H679.462C680.406 648.425 681.098 647.649 681.098 646.789V644.293C681.098 643.433 680.406 642.668 679.462 642.668H650.573V620.74H675.246C676.106 620.74 676.882 620.048 676.882 619.104V616.608C676.882 615.748 676.106 614.972 675.246 614.972H650.573V593.988H679.462C680.406 593.988 681.098 593.223 681.098 592.363V589.867C681.098 589.007 680.406 588.231 679.462 588.231H645.581C644.637 588.231 643.956 589.007 643.956 589.867V646.789ZM704.314 646.789C704.314 647.649 705.006 648.425 705.866 648.425H725.118C741.718 648.425 755.308 634.929 755.308 618.244C755.308 601.728 741.718 588.231 725.118 588.231H705.866C705.006 588.231 704.314 589.007 704.314 589.867V646.789ZM710.847 642.49V594.083H724.353C738.446 594.083 748.335 604.14 748.335 618.244C748.335 632.433 738.446 642.49 724.353 642.49H710.847Z" fill="#565658"/>
<path d="M819.808 649.935C820.07 650.449 820.668 650.879 821.265 650.879H822.125C822.817 650.879 823.331 650.449 823.593 649.935L849.735 592.059C850.249 590.947 849.557 589.825 848.267 589.825H844.828C844.146 589.825 843.538 590.339 843.37 590.769L821.958 638.924H821.611L800.199 590.769C800.031 590.339 799.517 589.825 798.741 589.825H795.302C794.012 589.825 793.32 590.947 793.844 592.059L819.808 649.935ZM869.68 648.383C869.68 649.243 870.456 650.019 871.316 650.019H874.755C875.615 650.019 876.391 649.243 876.391 648.383V591.461C876.391 590.601 875.615 589.825 874.755 589.825H871.316C870.456 589.825 869.68 590.601 869.68 591.461V648.383Z" fill="#565658"/>
<path d="M164.657 697.996C164.657 698.405 164.982 698.772 165.433 698.772H166.985C167.394 698.772 167.761 698.405 167.761 697.996V688.38H174.514C179.495 688.38 183.626 684.248 183.626 679.183C183.626 674.233 179.495 670.143 174.472 670.143H165.433C164.982 670.143 164.657 670.51 164.657 670.919V697.996ZM167.761 685.359V673.247H174.262C177.618 673.247 180.48 675.46 180.48 679.099C180.48 682.863 177.618 685.359 174.262 685.359H167.761ZM231.558 684.499C231.558 692.679 238.059 699.181 246.239 699.181C254.418 699.181 260.961 692.679 260.961 684.499C260.961 676.32 254.418 669.734 246.239 669.734C238.059 669.734 231.558 676.32 231.558 684.499ZM234.421 684.499C234.421 677.998 239.737 672.597 246.239 672.597C252.74 672.597 258.098 677.998 258.098 684.499C258.098 691.001 252.74 696.318 246.239 696.318C239.737 696.318 234.421 691.001 234.421 684.499ZM311.473 697.996C311.473 698.405 311.798 698.772 312.249 698.772H326.394C326.845 698.772 327.17 698.405 327.17 697.996V696.811C327.17 696.402 326.845 696.035 326.394 696.035H314.619V670.919C314.619 670.51 314.252 670.143 313.843 670.143H312.249C311.798 670.143 311.473 670.51 311.473 670.919V697.996ZM379.517 697.996C379.517 698.405 379.842 698.772 380.293 698.772H381.887C382.296 698.772 382.673 698.405 382.673 697.996V684.95L392.646 671.328C392.971 670.793 392.646 670.143 391.996 670.143H390.066C389.783 670.143 389.542 670.342 389.416 670.51L381.153 681.92L372.89 670.51C372.775 670.342 372.523 670.143 372.24 670.143H370.321C369.66 670.143 369.335 670.793 369.66 671.328L379.517 684.992V697.996ZM446.261 697.996C446.261 698.405 446.628 698.772 447.037 698.772H448.589C448.998 698.772 449.365 698.405 449.365 697.996V672.88H456.485C456.936 672.88 457.261 672.513 457.261 672.104V670.919C457.261 670.51 456.936 670.143 456.485 670.143H439.141C438.701 670.143 438.365 670.51 438.365 670.919V672.104C438.365 672.513 438.701 672.88 439.141 672.88H446.261V697.996ZM506.703 697.996C506.703 698.405 507.028 698.772 507.479 698.772H523.596C524.047 698.772 524.372 698.405 524.372 697.996V696.811C524.372 696.402 524.047 696.035 523.596 696.035H509.859V685.601H521.593C522.002 685.601 522.369 685.275 522.369 684.825V683.64C522.369 683.231 522.002 682.863 521.593 682.863H509.859V672.88H523.596C524.047 672.88 524.372 672.513 524.372 672.104V670.919C524.372 670.51 524.047 670.143 523.596 670.143H507.479C507.028 670.143 506.703 670.51 506.703 670.919V697.996ZM572.43 684.499C572.43 692.679 579.005 699.181 587.184 699.181C590.833 699.181 594.22 697.671 596.926 695.217C597.209 694.923 597.293 694.357 596.968 694.105L596.024 693.172C595.699 692.836 595.363 692.805 594.954 693.13C592.794 694.965 590.707 696.192 587.153 696.192C580.683 696.192 575.733 690.76 575.733 684.457C575.733 678.113 580.683 672.681 587.153 672.681C590.131 672.681 592.836 673.908 594.954 675.743C595.363 676.152 595.699 676.194 596.024 675.785L597.125 674.684C597.45 674.359 597.408 673.866 597.083 673.541C594.304 671.16 591.316 669.734 587.184 669.734C579.005 669.734 572.43 676.32 572.43 684.499ZM647.553 697.996C647.553 698.405 647.92 698.772 648.329 698.772H649.922C650.373 698.772 650.698 698.405 650.698 697.996V685.601H667.308V697.996C667.308 698.405 667.633 698.772 668.084 698.772H669.678C670.087 698.772 670.454 698.405 670.454 697.996V670.919C670.454 670.51 670.087 670.143 669.678 670.143H668.084C667.633 670.143 667.308 670.51 667.308 670.919V682.863H650.698V670.919C650.698 670.51 650.373 670.143 649.922 670.143H648.329C647.92 670.143 647.553 670.51 647.553 670.919V697.996ZM722.759 697.996C722.759 698.405 723.126 698.772 723.535 698.772H724.972C725.412 698.772 725.747 698.405 725.747 697.996V675.743H725.789L744.308 698.856C744.476 699.097 744.675 699.181 744.969 699.181H745.294C745.703 699.181 746.07 698.856 746.07 698.447V670.919C746.07 670.51 745.703 670.143 745.294 670.143H743.857C743.406 670.143 743.081 670.51 743.081 670.919V692.721C743.039 692.721 743.039 692.721 742.997 692.721L724.804 670.059C724.636 669.818 724.437 669.734 724.154 669.734H723.535C723.126 669.734 722.759 670.059 722.759 670.468V697.996ZM798.374 697.996C798.374 698.405 798.741 698.772 799.15 698.772H800.786C801.195 698.772 801.562 698.405 801.562 697.996V670.919C801.562 670.51 801.195 670.143 800.786 670.143H799.15C798.741 670.143 798.374 670.51 798.374 670.919V697.996ZM852.074 684.499C852.074 692.679 858.659 699.181 866.838 699.181C870.477 699.181 873.864 697.671 876.569 695.217C876.852 694.923 876.936 694.357 876.611 694.105L875.667 693.172C875.342 692.836 875.017 692.805 874.608 693.13C872.438 694.965 870.351 696.192 866.796 696.192C860.337 696.192 855.387 690.76 855.387 684.457C855.387 678.113 860.337 672.681 866.796 672.681C869.774 672.681 872.48 673.908 874.608 675.743C875.017 676.152 875.342 676.194 875.667 675.785L876.768 674.684C877.104 674.359 877.062 673.866 876.727 673.541C873.948 671.16 870.97 669.734 866.838 669.734C858.659 669.734 852.074 676.32 852.074 684.499Z" fill="#565658"/>
<path d="M161.469 761.881C161.469 774.633 170.445 784.029 183.616 784.029C196.87 784.029 205.93 774.633 205.93 761.881V726.058C205.93 725.219 205.175 724.464 204.336 724.464H201.148C200.226 724.464 199.554 725.219 199.554 726.058V761.545C199.554 771.109 193.514 778.072 183.616 778.072C173.801 778.072 167.844 770.942 167.844 761.378V726.058C167.844 725.219 167.173 724.464 166.251 724.464H163.063C162.224 724.464 161.469 725.219 161.469 726.058V761.881ZM250.643 781.596C250.643 782.435 251.398 783.19 252.237 783.19H255.173C256.096 783.19 256.767 782.435 256.767 781.596V735.958H256.851L294.852 783.358C295.188 783.861 295.607 784.029 296.194 784.029H296.866C297.704 784.029 298.459 783.358 298.459 782.519V726.058C298.459 725.219 297.704 724.464 296.866 724.464H293.929C293.007 724.464 292.336 725.219 292.336 726.058V770.774C292.252 770.774 292.252 770.774 292.168 770.774L254.837 724.297C254.502 723.793 254.082 723.625 253.495 723.625H252.237C251.398 723.625 250.643 724.297 250.643 725.136V781.596ZM343.759 781.596C343.759 782.435 344.514 783.19 345.353 783.19H348.709C349.548 783.19 350.303 782.435 350.303 781.596V726.058C350.303 725.219 349.548 724.464 348.709 724.464H345.353C344.514 724.464 343.759 725.219 343.759 726.058V781.596ZM413.471 783.106C413.723 783.609 414.31 784.029 414.897 784.029H415.736C416.407 784.029 416.911 783.609 417.162 783.106L442.664 726.646C443.168 725.555 442.497 724.464 441.238 724.464H437.883C437.212 724.464 436.624 724.968 436.457 725.387L415.568 772.368H415.233L394.344 725.387C394.177 724.968 393.673 724.464 392.918 724.464H389.563C388.304 724.464 387.633 725.555 388.137 726.646L413.471 783.106ZM480.414 781.596C480.414 782.435 481.086 783.19 482.008 783.19H515.061C515.983 783.19 516.654 782.435 516.654 781.596V779.163C516.654 778.324 515.983 777.569 515.061 777.569H486.874V756.176H510.95C511.789 756.176 512.544 755.505 512.544 754.582V752.149C512.544 751.31 511.789 750.555 510.95 750.555H486.874V730.085H515.061C515.983 730.085 516.654 729.33 516.654 728.491V726.058C516.654 725.219 515.983 724.464 515.061 724.464H482.008C481.086 724.464 480.414 725.219 480.414 726.058V781.596ZM557.928 781.596C557.928 782.435 558.599 783.19 559.522 783.19H562.793C563.632 783.19 564.387 782.435 564.387 781.596V760.203H580.41L591.316 781.932C591.735 782.771 592.154 783.19 593.161 783.19H597.188C598.614 783.19 599.201 781.848 598.614 780.757L587.121 759.448C594.419 756.512 599.537 750.052 599.537 742.334C599.537 732.35 591.316 724.464 581.249 724.464H559.522C558.599 724.464 557.928 725.219 557.928 726.058V781.596ZM564.555 754.666V730.589H580.829C587.289 730.589 592.909 736.042 592.909 742.418C592.909 749.297 587.289 754.666 580.829 754.666H564.555ZM638.881 777.234C639.971 778.24 646.682 784.029 656.581 784.029C666.396 784.029 674.701 777.317 674.701 768.592C674.701 758.861 667.403 754.582 656.078 749.968C649.031 747.032 644.753 744.431 644.753 738.475C644.753 734.951 647.437 729.246 656.329 729.246C661.027 729.246 663.963 730.505 667.487 732.602C668.829 733.357 669.752 733.357 670.423 732.183L671.262 730.756C672.184 729.162 671.262 728.156 670.758 727.904C670.758 727.904 664.634 723.625 656.413 723.625C643.075 723.625 638.545 732.854 638.545 738.559C638.545 748.122 644.082 751.646 653.309 755.589C662.957 759.7 667.99 763.056 667.99 768.844C667.99 774.129 663.544 778.408 656.749 778.408C649.283 778.408 642.907 772.787 642.32 772.284C641.146 771.277 640.474 771.697 639.636 772.787L638.377 774.381C637.203 775.891 638.209 776.646 638.881 777.234ZM715.471 781.596C715.471 782.435 716.226 783.19 717.065 783.19H720.421C721.259 783.19 722.014 782.435 722.014 781.596V726.058C722.014 725.219 721.259 724.464 720.421 724.464H717.065C716.226 724.464 715.471 725.219 715.471 726.058V781.596ZM777.633 781.596C777.633 782.435 778.388 783.19 779.227 783.19H782.414C783.253 783.19 784.008 782.435 784.008 781.596V730.085H798.605C799.528 730.085 800.199 729.33 800.199 728.491V726.058C800.199 725.219 799.528 724.464 798.605 724.464H763.036C762.113 724.464 761.442 725.219 761.442 726.058V728.491C761.442 729.33 762.113 730.085 763.036 730.085H777.633V781.596ZM852.378 781.596C852.378 782.435 853.049 783.19 853.972 783.19H857.243C858.082 783.19 858.837 782.435 858.837 781.596V754.834L879.306 726.897C879.977 725.807 879.306 724.464 877.964 724.464H874.021C873.434 724.464 872.931 724.884 872.679 725.219L855.733 748.626L838.788 725.219C838.536 724.884 838.033 724.464 837.445 724.464H833.503C832.161 724.464 831.489 725.807 832.161 726.897L852.378 754.918V781.596Z" fill="#565658"/>
</g>
<defs>
<clipPath id="clip0">
<rect width="1037" height="1037" fill="white"/>
</clipPath>
</defs>
</svg>
